<svg xmlns="http://www.w3.org/2000/svg" xmlns:xlink="http://www.w3.org/1999/xlink" width="100" zoomAndPan="magnify" viewBox="0 0 75 225" height="300" preserveAspectRatio="xMidYMid meet" version="1.0"><defs><filter x="0%" y="0%" width="100%" height="100%" id="3d27900ea8"><feColorMatrix values="0 0 0 0 1 0 0 0 0 1 0 0 0 0 1 0 0 0 1 0" color-interpolation-filters="sRGB"/></filter><mask id="5d204c7636"><g filter="url(#3d27900ea8)"><rect x="-7.5" width="90" fill="#000000" y="-22.5" height="270" fill-opacity="0.36"/></g></mask><clipPath id="04a9260228"><path d="M 4 0.679688 L 66 0.679688 L 66 34 L 4 34 Z M 4 0.679688 " clip-rule="nonzero"/></clipPath><clipPath id="a8b6fe022d"><rect x="0" width="70" y="0" height="36"/></clipPath><mask id="f6739a636d"><g filter="url(#3d27900ea8)"><rect x="-7.5" width="90" fill="#000000" y="-22.5" height="270" fill-opacity="0.36"/></g></mask><clipPath id="5a945830fc"><path d="M 4 0.601562 L 66 0.601562 L 66 34 L 4 34 Z M 4 0.601562 " clip-rule="nonzero"/></clipPath><clipPath id="5b1428c50b"><rect x="0" width="70" y="0" height="36"/></clipPath><mask id="e7790e6fd4"><g filter="url(#3d27900ea8)"><rect x="-7.5" width="90" fill="#000000" y="-22.5" height="270" fill-opacity="0.36"/></g></mask><clipPath id="4b983f8196"><path d="M 4 0.0390625 L 66 0.0390625 L 66 33.566406 L 4 33.566406 Z M 4 0.0390625 " clip-rule="nonzero"/></clipPath><clipPath id="07c75c0501"><rect x="0" width="70" y="0" height="35"/></clipPath><mask id="c193523bbf"><g filter="url(#3d27900ea8)"><rect x="-7.5" width="90" fill="#000000" y="-22.5" height="270" fill-opacity="0.36"/></g></mask><clipPath id="bf12834d52"><path d="M 4 0.238281 L 66 0.238281 L 66 33.90625 L 4 33.90625 Z M 4 0.238281 " clip-rule="nonzero"/></clipPath><clipPath id="2907b0f2d4"><rect x="0" width="70" y="0" height="36"/></clipPath></defs><g mask="url(#5d204c7636)"><g transform="matrix(1, 0, 0, 1, 2, 7)"><g clip-path="url(#a8b6fe022d)"><g clip-path="url(#04a9260228)"><path fill="#5ce1e6" d="M 61.292969 0.8125 C 66.070312 0.8125 67.21875 3.535156 63.820312 6.9375 L 38.328125 32.429688 C 36.625 34.128906 33.84375 34.105469 32.167969 32.429688 L 6.675781 6.9375 C 3.296875 3.554688 4.433594 0.8125 9.203125 0.8125 Z M 61.292969 0.8125 " fill-opacity="1" fill-rule="evenodd"/></g></g></g></g><g mask="url(#f6739a636d)"><g transform="matrix(1, 0, 0, 1, 2, 183)"><g clip-path="url(#5b1428c50b)"><g clip-path="url(#5a945830fc)"><path fill="#5ce1e6" d="M 61.292969 0.785156 C 66.070312 0.785156 67.21875 3.507812 63.820312 6.910156 L 38.328125 32.402344 C 36.625 34.101562 33.84375 34.078125 32.167969 32.402344 L 6.675781 6.910156 C 3.296875 3.527344 4.433594 0.785156 9.203125 0.785156 Z M 61.292969 0.785156 " fill-opacity="1" fill-rule="evenodd"/></g></g></g></g><g mask="url(#e7790e6fd4)"><g transform="matrix(1, 0, 0, 1, 2, 125)"><g clip-path="url(#07c75c0501)"><g clip-path="url(#4b983f8196)"><path fill="#0cc0df" d="M 61.292969 0.128906 C 66.070312 0.128906 67.21875 2.851562 63.820312 6.25 L 38.328125 31.742188 C 36.625 33.445312 33.84375 33.417969 32.167969 31.742188 L 6.675781 6.25 C 3.296875 2.871094 4.433594 0.128906 9.203125 0.128906 Z M 61.292969 0.128906 " fill-opacity="1" fill-rule="evenodd"/></g></g></g></g><g mask="url(#c193523bbf)"><g transform="matrix(1, 0, 0, 1, 2, 66)"><g clip-path="url(#2907b0f2d4)"><g clip-path="url(#bf12834d52)"><path fill="#0cc0df" d="M 61.292969 0.472656 C 66.070312 0.472656 67.21875 3.195312 63.820312 6.59375 L 38.328125 32.085938 C 36.625 33.785156 33.84375 33.761719 32.167969 32.085938 L 6.675781 6.59375 C 3.296875 3.210938 4.433594 0.472656 9.203125 0.472656 Z M 61.292969 0.472656 " fill-opacity="1" fill-rule="evenodd"/></g></g></g></g></svg>