<svg width="40" height="40" viewBox="0 0 40 40" fill="none" xmlns="http://www.w3.org/2000/svg">
<g opacity="0.8" clip-path="url(#clip0_5646_30193)">
<mask id="mask0_5646_30193" style="mask-type:alpha" maskUnits="userSpaceOnUse" x="-2" y="-2" width="44" height="44">
<rect x="-2" y="-2" width="44" height="44" fill="#D9D9D9"/>
</mask>
<g mask="url(#mask0_5646_30193)">
<path d="M20 38C16.3762 38 13.1315 37.025 10.2657 35.075C7.39881 33.125 5.23762 30.515 3.78218 27.245V32.24C3.78218 32.51 3.70079 32.7278 3.53802 32.8934C3.37406 33.0578 3.15842 33.14 2.89109 33.14C2.65347 33.14 2.44554 33.0578 2.26733 32.8934C2.08911 32.7278 2 32.51 2 32.24V25.625C2 25.205 2.14139 24.8522 2.42416 24.5666C2.70574 24.2822 3.0396 24.14 3.42574 24.14H10.0198C10.2871 24.14 10.5028 24.23 10.6667 24.41C10.8295 24.59 10.9109 24.8 10.9109 25.04C10.9109 25.31 10.8295 25.5272 10.6667 25.6916C10.5028 25.8572 10.2871 25.94 10.0198 25.94H5.20792C6.36634 29.03 8.29703 31.5128 11 33.3884C13.703 35.2628 16.703 36.2 20 36.2C24.099 36.2 27.6562 34.8428 30.6717 32.1284C33.6859 29.4128 35.4455 25.97 35.9505 21.8C35.9802 21.53 36.0842 21.3122 36.2624 21.1466C36.4406 20.9822 36.6485 20.9 36.8861 20.9C37.1535 20.9 37.3691 20.99 37.5331 21.17C37.6958 21.35 37.7624 21.56 37.7327 21.8C37.4951 24.08 36.8713 26.21 35.8614 28.19C34.8515 30.17 33.5594 31.88 31.9851 33.32C30.4109 34.76 28.599 35.9 26.5495 36.74C24.5 37.58 22.3168 38 20 38ZM3.11386 19.1C2.84653 19.1 2.63149 19.01 2.46871 18.83C2.30475 18.65 2.23762 18.44 2.26733 18.2C2.53465 15.83 3.18812 13.6472 4.22772 11.6516C5.26733 9.6572 6.58198 7.9472 8.17168 6.5216C9.7602 5.0972 11.5715 3.9872 13.6055 3.1916C15.6408 2.3972 17.7723 2 20 2C23.5644 2 26.8168 2.975 29.7574 4.925C32.698 6.875 34.8515 9.53 36.2178 12.89V7.76C36.2178 7.49 36.2998 7.2722 36.4638 7.1066C36.6265 6.9422 36.8416 6.86 37.1089 6.86C37.3465 6.86 37.5545 6.9422 37.7327 7.1066C37.9109 7.2722 38 7.49 38 7.76V14.375C38 14.795 37.8592 15.1472 37.5776 15.4316C37.2949 15.7172 36.9604 15.86 36.5743 15.86H29.9802C29.7129 15.86 29.4978 15.77 29.3351 15.59C29.1711 15.41 29.0891 15.2 29.0891 14.96C29.0891 14.69 29.1711 14.4722 29.3351 14.3066C29.4978 14.1422 29.7129 14.06 29.9802 14.06H34.7921C33.7228 11.06 31.8218 8.6 29.0891 6.68C26.3564 4.76 23.3267 3.8 20 3.8C16.0198 3.8 12.4923 5.12 9.41742 7.76C6.34376 10.4 4.55446 13.88 4.0495 18.2C4.0198 18.47 3.91584 18.6878 3.73762 18.8534C3.55941 19.0178 3.35149 19.1 3.11386 19.1ZM19.9554 31.925C19.7178 31.925 19.5099 31.835 19.3317 31.655C19.1535 31.475 19.0644 31.265 19.0644 31.025V29.72C17.9951 29.48 17.0594 29.075 16.2574 28.505C15.4554 27.935 14.7871 27.155 14.2525 26.165C14.1634 25.955 14.1711 25.73 14.2756 25.49C14.379 25.25 14.5347 25.1 14.7426 25.04C14.9208 24.95 15.1287 24.9422 15.3663 25.0166C15.604 25.0922 15.7822 25.235 15.901 25.445C16.4059 26.285 17.0297 26.945 17.7723 27.425C18.5149 27.905 19.3465 28.145 20.2673 28.145C21.3069 28.145 22.2871 27.8672 23.2079 27.3116C24.1287 26.7572 24.5891 25.85 24.5891 24.59C24.5891 23.57 24.2624 22.775 23.6089 22.205C22.9554 21.635 21.6634 20.99 19.7327 20.27C17.8317 19.58 16.4725 18.845 15.655 18.065C14.8388 17.285 14.4307 16.25 14.4307 14.96C14.4307 13.88 14.8317 12.8822 15.6337 11.9666C16.4356 11.0522 17.6089 10.46 19.1535 10.19V8.975C19.1535 8.735 19.2426 8.525 19.4208 8.345C19.599 8.165 19.8069 8.075 20.0446 8.075C20.2822 8.075 20.4901 8.165 20.6683 8.345C20.8465 8.525 20.9356 8.735 20.9356 8.975V10.19C21.7079 10.25 22.4505 10.49 23.1634 10.91C23.8762 11.33 24.4703 11.885 24.9455 12.575C25.0941 12.755 25.116 12.965 25.0115 13.205C24.9081 13.445 24.7376 13.61 24.5 13.7C24.3218 13.79 24.1287 13.7972 23.9208 13.7216C23.7129 13.6472 23.5495 13.52 23.4307 13.34C23.0446 12.86 22.577 12.4772 22.0281 12.1916C21.478 11.9072 20.8317 11.765 20.0891 11.765C18.901 11.765 17.9582 12.065 17.2608 12.665C16.5622 13.265 16.2129 14.03 16.2129 14.96C16.2129 15.89 16.4802 16.6022 17.0149 17.0966C17.5495 17.5922 18.8119 18.185 20.802 18.875C22.9406 19.655 24.3883 20.4872 25.1451 21.3716C25.9032 22.2572 26.2822 23.33 26.2822 24.59C26.2822 26.3 25.6958 27.5678 24.5232 28.3934C23.3493 29.2178 22.1238 29.69 20.8465 29.81V31.025C20.8465 31.265 20.7574 31.475 20.5792 31.655C20.401 31.835 20.1931 31.925 19.9554 31.925Z" fill="#151515"/>
</g>
</g>
<defs>
<clipPath id="clip0_5646_30193">
<rect width="40" height="40" fill="white"/>
</clipPath>
</defs>
</svg>
