<?xml version="1.0" encoding="UTF-8"?>
<svg xmlns="http://www.w3.org/2000/svg" width="40" height="41" viewBox="0 0 40 41" fill="none">
  <g opacity="0.8" clip-path="url(#clip0_5543_28761)">
    <mask id="mask0_5543_28761" style="mask-type:alpha" maskUnits="userSpaceOnUse" x="-5" y="-5" width="50" height="51">
      <rect x="-5" y="-4.5" width="50" height="50" fill="#D9D9D9"></rect>
    </mask>
    <g mask="url(#mask0_5543_28761)">
      <path d="M17.75 26.531L28.3736 15.9972L26.8448 14.4813L17.75 23.4991L13.1676 18.9555L11.6387 20.4714L17.75 26.531ZM20 39.5C15.695 38.2333 12.1188 35.6476 9.2713 31.7427C6.42377 27.8378 5 23.4392 5 18.5469V7.05697L20 1.5L35 7.05697V18.5469C35 23.4392 33.5762 27.8378 30.7287 31.7427C27.8812 35.6476 24.305 38.2333 20 39.5ZM20 37.2445C23.7143 36.0759 26.7857 33.7387 29.2143 30.2329C31.6429 26.7271 32.8571 22.8317 32.8571 18.5469V8.50752L20 3.76773L7.14286 8.50752V18.5469C7.14286 22.8317 8.35714 26.7271 10.7857 30.2329C13.2143 33.7387 16.2857 36.0759 20 37.2445Z" fill="#151515"></path>
    </g>
  </g>
  <defs>
    <clipPath id="clip0_5543_28761">
      <rect width="40" height="40" fill="white" transform="translate(0 0.5)"></rect>
    </clipPath>
  </defs>
</svg>
